<?xml version="1.0" standalone="no"?>
<!DOCTYPE svg PUBLIC "-//W3C//DTD SVG 20010904//EN"
 "http://www.w3.org/TR/2001/REC-SVG-20010904/DTD/svg10.dtd">
<svg version="1.0" xmlns="http://www.w3.org/2000/svg"
 width="500.000000pt" height="500.000000pt" viewBox="0 0 500.000000 500.000000"
 preserveAspectRatio="xMidYMid meet">
<metadata>
Created by potrace 1.14, written by Peter Selinger 2001-2017
</metadata>
<g transform="translate(0.000000,500.000000) scale(0.100000,-0.100000)"
fill="#000000" stroke="none">
<path d="M2405 4270 c-94 -11 -150 -23 -265 -57 -86 -25 -240 -91 -240 -102 0
-3 25 -111 56 -238 l57 -233 31 19 c92 55 129 73 211 100 164 54 351 64 515
25 112 -26 379 -171 373 -202 -2 -6 3 -9 11 -6 8 3 42 -26 84 -73 112 -123
162 -211 219 -382 28 -85 36 -127 40 -211 7 -140 -3 -194 -97 -538 -44 -162
-80 -299 -80 -306 0 -8 68 -156 152 -331 125 -260 154 -313 160 -293 4 12 75
273 158 578 187 687 200 766 165 1033 -78 595 -529 1076 -1123 1197 -115 23
-315 32 -427 20z"/>
<path d="M1808 2867 c-6 -13 -4 -38 7 -82 20 -80 13 -109 -50 -219 -25 -43
-42 -83 -38 -89 3 -5 2 -7 -4 -4 -5 3 -17 -10 -27 -28 -17 -32 -18 -36 -3 -59
11 -16 37 -31 72 -42 51 -16 55 -20 55 -48 -1 -68 -30 -255 -51 -316 -21 -64
-21 -66 -3 -114 34 -87 105 -114 219 -80 l60 17 -35 13 c-47 17 -59 16 -36 -1
11 -8 15 -15 9 -15 -6 0 -16 7 -23 15 -7 8 -9 15 -4 15 4 0 -7 13 -26 30 -18
16 -37 27 -43 23 -6 -4 -7 -1 -2 7 4 7 2 15 -4 19 -19 12 -51 118 -51 170 0
28 7 71 16 97 8 25 13 53 9 62 -3 9 -3 13 2 9 10 -11 53 161 45 181 -3 10 -1
13 6 8 6 -4 12 3 14 16 3 23 6 23 152 26 l149 3 43 -45 c51 -54 102 -82 168
-91 40 -6 47 -5 41 6 -8 12 -6 12 8 1 20 -17 71 -2 134 40 157 105 161 343 8
448 -58 40 -132 60 -145 40 -7 -10 -10 -11 -10 -3 0 10 -72 12 -326 10 -303
-2 -327 -3 -336 -20z m650 -72 c-3 -3 -9 2 -12 12 -6 14 -5 15 5 6 7 -7 10
-15 7 -18z m-391 9 c-3 -3 -12 -4 -19 -1 -8 3 -5 6 6 6 11 1 17 -2 13 -5z
m-192 -14 c-3 -5 -12 -7 -20 -3 -21 7 -19 13 6 13 11 0 18 -4 14 -10z m58 3
c-7 -2 -21 -2 -30 0 -10 3 -4 5 12 5 17 0 24 -2 18 -5z m54 1 c-3 -3 -12 -4
-19 -1 -8 3 -5 6 6 6 11 1 17 -2 13 -5z m166 -1 c-7 -2 -19 -2 -25 0 -7 3 -2
5 12 5 14 0 19 -2 13 -5z m-266 -75 c-2 -13 -4 -3 -4 22 0 25 2 35 4 23 2 -13
2 -33 0 -45z m-18 29 c0 -9 -2 -8 -6 1 -2 6 -10 9 -15 6 -7 -4 -8 -2 -4 5 9
13 26 5 25 -12z m196 3 c-3 -6 4 -14 17 -19 15 -7 17 -10 7 -10 -19 -1 -42 23
-32 32 10 10 15 8 8 -3z m342 -22 c-3 -8 -6 -5 -6 6 -1 11 2 17 5 13 3 -3 4
-12 1 -19z m15 -54 c-9 -16 -10 -14 -9 8 1 15 6 23 11 18 4 -4 4 -16 -2 -26z
m249 13 c-10 -9 -11 -8 -5 6 3 10 9 15 12 12 3 -3 0 -11 -7 -18z m-661 9 c0
-3 -4 -8 -10 -11 -5 -3 -10 -1 -10 4 0 6 5 11 10 11 6 0 10 -2 10 -4z m35 -6
c3 -6 -1 -7 -9 -4 -18 7 -21 14 -7 14 6 0 13 -4 16 -10z m560 -20 c-10 -11
-21 -18 -23 -15 -3 3 3 12 14 20 27 20 30 18 9 -5z m25 -10 c0 -5 -5 -10 -11
-10 -5 0 -7 5 -4 10 3 6 8 10 11 10 2 0 4 -4 4 -10z m-730 -38 c0 -15 -2 -15
-10 -2 -13 20 -13 33 0 25 6 -3 10 -14 10 -23z m75 9 c-3 -6 -11 -11 -16 -11
-5 0 -4 6 3 14 14 16 24 13 13 -3z m650 -11 c-10 -11 -22 -20 -28 -20 -5 0 1
9 14 20 31 25 37 25 14 0z m-703 -12 c-7 -7 -12 -8 -12 -2 0 14 12 26 19 19 2
-3 -1 -11 -7 -17z m-47 2 c3 -5 1 -10 -4 -10 -6 0 -11 5 -11 10 0 6 2 10 4 10
3 0 8 -4 11 -10z m681 -2 c5 -7 3 -8 -5 -4 -8 5 -14 0 -18 -13 -3 -12 -10 -21
-15 -21 -9 0 -4 13 15 38 12 15 14 15 23 0z m-167 -47 c-6 -18 -13 -30 -15
-28 -2 2 1 18 7 36 6 18 13 30 15 28 2 -2 -1 -18 -7 -36z m-594 -10 c-3 -6
-11 -11 -17 -11 -6 0 -6 6 2 15 14 17 26 13 15 -4z m713 -46 c-3 -3 -9 2 -12
12 -6 14 -5 15 5 6 7 -7 10 -15 7 -18z m46 13 c-3 -4 -9 -8 -15 -8 -5 0 -9 4
-9 8 0 5 7 9 15 9 8 0 12 -4 9 -9z m-94 -58 c0 -5 -2 -10 -4 -10 -3 0 -8 5
-11 10 -3 6 -1 10 4 10 6 0 11 -4 11 -10z m190 -20 c0 -5 -5 -10 -11 -10 -5 0
-7 5 -4 10 3 6 8 10 11 10 2 0 4 -4 4 -10z m-940 -15 c-7 -9 -15 -13 -19 -10
-3 3 1 10 9 15 21 14 24 12 10 -5z m41 -2 c13 -16 12 -17 -3 -4 -10 7 -18 15
-18 17 0 8 8 3 21 -13z m-6 -32 c-6 -5 -25 10 -25 20 0 5 6 4 14 -3 8 -7 12
-15 11 -17z m82 -213 c-3 -8 -6 -5 -6 6 -1 11 2 17 5 13 3 -3 4 -12 1 -19z
m-10 -115 c-3 -10 -5 -4 -5 12 0 17 2 24 5 18 2 -7 2 -21 0 -30z m13 -57 c0
-3 -4 -8 -10 -11 -5 -3 -10 -1 -10 4 0 6 5 11 10 11 6 0 10 -2 10 -4z m-37
-29 c3 -8 -1 -14 -8 -14 -7 0 -11 6 -8 14 3 7 6 13 8 13 2 0 5 -6 8 -13z m5
-142 c-3 -3 -9 2 -12 12 -6 14 -5 15 5 6 7 -7 10 -15 7 -18z m19 -27 c-3 -8
-6 -5 -6 6 -1 11 2 17 5 13 3 -3 4 -12 1 -19z m133 -18 c-8 -5 -19 -10 -25
-10 -5 0 -3 5 5 10 8 5 20 10 25 10 6 0 3 -5 -5 -10z"/>
<path d="M2870 2053 c-13 -5 -91 -69 -156 -128 -23 -21 -121 -73 -186 -99 -43
-17 -176 -45 -230 -48 -38 -2 -38 -3 -38 -44 0 -31 9 -56 35 -95 19 -30 35
-62 35 -73 0 -16 3 -17 12 -8 10 10 10 17 0 32 -6 11 -12 25 -12 32 0 7 7 0
15 -16 12 -23 13 -36 5 -55 -7 -19 -7 -38 2 -69 l13 -42 60 31 c70 36 268 89
331 89 28 0 44 4 44 13 0 9 2 9 8 0 9 -14 94 -12 104 2 5 6 8 5 8 -2 0 -7 10
-12 23 -12 19 1 19 2 3 6 -15 4 -16 7 -5 14 12 7 12 10 1 18 -9 5 11 10 55 13
83 6 135 31 190 91 47 51 65 104 64 185 0 67 -4 73 -41 59 -40 -15 -80 0 -105
40 -16 26 -27 32 -55 33 -19 0 -48 9 -65 20 -28 19 -82 25 -115 13z m-150
-153 c0 -5 -5 -10 -11 -10 -5 0 -7 5 -4 10 3 6 8 10 11 10 2 0 4 -4 4 -10z
m-3 -52 c-3 -7 -5 -2 -5 12 0 14 2 19 5 13 2 -7 2 -19 0 -25z m10 -50 c-3 -8
-6 -5 -6 6 -1 11 2 17 5 13 3 -3 4 -12 1 -19z m-334 -35 c-7 -2 -19 -2 -25 0
-7 3 -2 5 12 5 14 0 19 -2 13 -5z m-103 -17 c0 -7 7 -19 15 -26 8 -7 15 -18
14 -24 0 -6 -3 -6 -6 2 -4 10 -9 9 -20 -5 -14 -17 -14 -17 -5 1 7 14 6 26 -5
43 -10 15 -11 23 -4 23 6 0 11 -6 11 -14z m441 -19 c-10 -9 -11 -8 -5 6 3 10
9 15 12 12 3 -3 0 -11 -7 -18z m49 -29 c0 -5 -7 -11 -16 -15 -9 -3 -13 -12 -9
-22 5 -13 4 -14 -7 -3 -11 11 -10 16 5 26 24 18 21 29 -5 21 -20 -5 -21 -5 -5
5 9 6 15 17 11 23 -3 7 2 3 10 -7 9 -11 16 -24 16 -28z m56 -45 c-2 -2 -13 -6
-26 -8 -17 -3 -19 -1 -11 9 6 7 7 16 3 21 -4 4 3 2 15 -6 12 -7 21 -15 19 -16z
m64 -39 c0 -8 -19 -13 -24 -6 -3 5 1 9 9 9 8 0 15 -2 15 -3z m-363 -70 c-3 -3
-12 -4 -19 -1 -8 3 -5 6 6 6 11 1 17 -2 13 -5z m-67 -28 c0 -2 -7 -7 -16 -10
-8 -3 -12 -2 -9 4 6 10 25 14 25 6z m-92 -51 c-3 -3 -9 2 -12 12 -6 14 -5 15
5 6 7 -7 10 -15 7 -18z"/>
<path d="M2412 530 c-34 -21 -62 -71 -62 -111 0 -35 31 -89 61 -104 15 -8 47
-15 70 -15 33 0 47 6 75 34 33 33 38 50 34 110 -6 86 -102 132 -178 86z m92
-16 c28 -11 17 -26 -14 -19 -24 5 -35 1 -56 -20 -23 -23 -25 -31 -19 -71 7
-49 -10 -63 -22 -16 -21 85 39 154 111 126z m50 -50 c3 -9 6 -31 6 -50 0 -50
-37 -84 -90 -84 -29 0 -40 4 -37 13 2 7 16 11 35 9 22 -2 37 3 54 20 21 21 21
23 5 26 -10 2 -25 -2 -33 -9 -8 -6 -17 -9 -20 -6 -7 7 36 67 48 67 4 0 8 7 8
15 0 20 16 19 24 -1z m-81 -29 c-20 -25 -36 -24 -26 3 8 20 24 33 35 26 4 -3
0 -16 -9 -29z"/>
<path d="M1740 181 c0 -57 1 -59 28 -59 34 0 52 14 52 43 0 27 -24 49 -45 41
-10 -4 -15 1 -15 14 0 11 -4 20 -10 20 -6 0 -10 -26 -10 -59z m57 -7 c8 -21
-13 -42 -28 -27 -13 13 -5 43 11 43 6 0 13 -7 17 -16z"/>
<path d="M1834 226 c-9 -22 0 -101 11 -99 14 4 19 113 5 113 -6 0 -13 -6 -16
-14z"/>
<path d="M1880 230 c0 -5 5 -10 10 -10 6 0 10 5 10 10 0 6 -4 10 -10 10 -5 0
-10 -4 -10 -10z"/>
<path d="M2070 226 c0 -9 -12 -16 -27 -18 -24 -3 -29 -8 -31 -37 -4 -38 9 -51
47 -47 24 3 26 7 29 60 2 34 -1 56 -8 56 -5 0 -10 -6 -10 -14z m-7 -48 c6 -19
-3 -38 -19 -38 -8 0 -14 10 -14 25 0 26 25 35 33 13z"/>
<path d="M2430 230 c0 -5 5 -10 10 -10 6 0 10 5 10 10 0 6 -4 10 -10 10 -5 0
-10 -4 -10 -10z"/>
<path d="M2827 222 c-8 -35 7 -97 26 -100 18 -4 24 13 7 23 -14 9 -12 42 3 49
10 5 10 7 0 12 -7 3 -13 12 -13 20 0 20 -17 17 -23 -4z"/>
<path d="M1550 149 c0 -33 4 -59 10 -59 6 0 10 9 10 20 0 13 5 18 15 14 21 -8
45 14 45 41 0 29 -18 43 -52 43 -27 0 -28 -2 -28 -59z m57 25 c8 -21 -13 -42
-28 -27 -13 13 -5 43 11 43 6 0 13 -7 17 -16z"/>
<path d="M1652 168 c3 -41 5 -43 36 -45 32 -1 32 -1 32 43 0 50 -17 60 -22 12
-4 -46 -28 -49 -28 -4 0 20 -5 36 -11 36 -6 0 -9 -17 -7 -42z"/>
<path d="M1880 164 c0 -27 4 -43 10 -39 6 3 10 24 10 46 0 21 -4 39 -10 39 -5
0 -10 -21 -10 -46z"/>
<path d="M1921 192 c-14 -27 -2 -61 25 -68 28 -7 44 2 44 24 0 12 -3 13 -12 4
-20 -20 -38 -14 -38 14 0 23 3 25 26 20 19 -5 25 -3 22 6 -7 22 -55 22 -67 0z"/>
<path d="M2112 198 c-30 -30 0 -85 40 -75 29 8 39 32 27 65 -9 24 -47 30 -67
10z m48 -33 c0 -15 -6 -25 -14 -25 -16 0 -25 19 -18 38 8 22 32 13 32 -13z"/>
<path d="M2200 164 c0 -51 17 -60 22 -11 2 17 8 32 13 32 6 0 11 -15 13 -32 4
-45 22 -42 22 3 0 24 4 34 13 31 6 -2 12 -17 12 -32 1 -16 7 -31 14 -33 9 -3
11 8 9 39 l-3 44 -57 1 -58 1 0 -43z"/>
<path d="M2339 194 c-12 -15 -11 -16 21 -10 l35 6 -33 -15 c-46 -22 -40 -49
11 -52 l38 -1 -3 41 c-3 37 -6 42 -29 45 -15 2 -32 -4 -40 -14z m46 -44 c-3
-5 -10 -10 -16 -10 -5 0 -9 5 -9 10 0 6 7 10 16 10 8 0 12 -4 9 -10z"/>
<path d="M2430 165 c0 -25 5 -45 10 -45 6 0 10 20 10 45 0 25 -4 45 -10 45 -5
0 -10 -20 -10 -45z"/>
<path d="M2470 163 c0 -50 17 -59 22 -11 4 42 28 50 28 9 0 -38 17 -50 26 -17
9 37 -11 65 -46 64 -29 -1 -30 -3 -30 -45z"/>
<path d="M2560 198 c0 -21 24 -78 33 -78 8 0 37 61 37 80 0 20 -16 9 -27 -17
l-10 -28 -11 28 c-12 28 -22 35 -22 15z"/>
<path d="M2652 198 c-7 -7 -12 -21 -12 -33 0 -41 45 -60 71 -29 11 13 9 14
-13 9 -15 -4 -29 -2 -32 4 -5 7 4 11 23 11 19 0 31 5 31 13 0 18 -21 37 -40
37 -9 0 -21 -5 -28 -12z m38 -18 c0 -5 -4 -10 -10 -10 -5 0 -10 5 -10 10 0 6
5 10 10 10 6 0 10 -4 10 -10z"/>
<path d="M2742 198 c-32 -32 -2 -85 43 -74 24 6 36 36 15 36 -5 0 -10 -4 -10
-10 0 -16 -27 -11 -34 6 -9 24 3 36 31 29 18 -4 24 -2 21 7 -6 18 -50 22 -66
6z"/>
<path d="M2890 196 c-28 -35 11 -93 48 -70 35 22 22 84 -18 84 -10 0 -23 -7
-30 -14z m45 -31 c0 -28 -29 -25 -33 3 -3 19 0 23 15 20 10 -2 18 -12 18 -23z"/>
<path d="M2980 164 c0 -28 4 -43 10 -39 6 3 10 19 10 36 0 22 5 29 19 29 10 0
21 -7 25 -15 3 -8 12 -15 21 -15 8 0 15 -5 15 -11 0 -7 -10 -9 -27 -4 -23 5
-25 4 -14 -9 16 -19 42 -21 59 -4 18 18 15 26 -15 43 -25 14 -26 16 -5 11 15
-3 22 0 19 7 -2 7 -28 13 -60 14 l-57 2 0 -45z"/>
<path d="M3170 196 c-28 -35 11 -93 48 -70 35 22 22 84 -18 84 -10 0 -23 -7
-30 -14z m47 -22 c8 -21 -13 -42 -28 -27 -13 13 -5 43 11 43 6 0 13 -7 17 -16z"/>
<path d="M3260 165 c0 -25 5 -45 10 -45 6 0 10 16 10 35 0 24 5 35 15 35 8 0
15 5 15 10 0 6 -11 10 -25 10 -23 0 -25 -4 -25 -45z"/>
<path d="M3326 203 c-22 -23 8 -94 34 -78 5 3 10 1 10 -5 0 -8 -9 -10 -26 -6
-19 5 -25 3 -22 -6 6 -18 46 -22 64 -8 8 8 14 31 14 60 0 46 0 47 -34 48 -18
1 -36 -2 -40 -5z m51 -28 c5 -16 -14 -38 -26 -31 -18 12 -13 48 6 44 9 -2 18
-7 20 -13z"/>
<path d="M3120 136 c0 -9 5 -16 10 -16 6 0 10 4 10 9 0 6 -4 13 -10 16 -5 3
-10 -1 -10 -9z"/>
</g>
</svg>
